<svg version="1.2" baseProfile="tiny-ps" xmlns="http://www.w3.org/2000/svg" viewBox="0 0 512 512" width="512" height="512">
	<title>envelope-svg</title>
	<style>
		tspan { white-space:pre }
		.shp0 { fill: #64729e } 
	</style>
	<path id="Layer" fill-rule="evenodd" class="shp0" d="M348.3 304.5C328 319.3 291.7 352.4 256 352.1C220.5 352.3 184.9 319.9 163.8 304.5C61.8 230.4 32.1 208.3 9.7 190.9C5.7 187.8 0 190.6 0 195.6L0 400C0 426.5 21.5 448 48 448L464 448C490.5 448 512 426.5 512 400L512 195.5C512 190.6 506.2 187.7 502.3 190.8C479.9 208.2 450.3 230.4 348.3 304.5ZM256 320C279.2 320.4 312.6 290.8 329.4 278.6C462.1 182.3 472.2 173.9 502.8 149.9C508.6 145.4 512 138.4 512 131L512 112C512 85.5 490.5 64 464 64L48 64C21.5 64 0 85.5 0 112L0 131C0 138.4 3.4 145.3 9.2 149.9C39.8 173.8 49.9 182.3 182.6 278.6C199.4 290.8 232.8 320.4 256 320Z" />
</svg>