<svg version="1.2" baseProfile="tiny-ps" xmlns="http://www.w3.org/2000/svg" viewBox="0 0 576 512" width="576" height="512">
	<title>warning-svg</title>
	<style>
		tspan { white-space:pre }
		.shp0 { fill: #d31234 } 
	</style>
	<path id="Layer" fill-rule="evenodd" class="shp0" d="M527.94 512L48.05 512C11.12 512 -11.95 471.94 6.48 440.01L246.42 23.98C264.89 -8.02 311.14 -7.97 329.58 23.98L569.52 440.01C587.98 472.01 564.81 512 527.94 512ZM288 354C262.6 354 242 374.6 242 400C242 425.4 262.6 446 288 446C313.4 446 334 425.4 334 400C334 374.6 313.4 354 288 354ZM251.75 324.65C252.09 331.02 257.35 336 263.73 336L312.27 336C318.65 336 323.91 331.02 324.25 324.65L331.67 188.65C332.05 181.78 326.57 176 319.69 176L256.31 176C249.42 176 243.95 181.78 244.33 188.65L251.75 324.65Z" />
</svg>